<?xml version="1.0" encoding="UTF-8"?>
<svg xmlns="http://www.w3.org/2000/svg" id="a" width="865.76" height="682.89" viewBox="0 0 865.76 682.89">
  <g>
    <rect x="367.2" y="33.56" width="111" height="97" fill="#eaeaea" stroke="#002346" stroke-miterlimit="10"></rect>
    <line x1="382.2" y1="50.56" x2="406.2" y2="50.56" fill="none" stroke="#002346" stroke-linecap="round" stroke-linejoin="round"></line>
    <line x1="382.2" y1="58.56" x2="454.2" y2="58.56" fill="none" stroke="#002346" stroke-linecap="round" stroke-linejoin="round"></line>
    <rect x="383.2" y="71.56" width="5" height="5" fill="#fff" stroke="#002346" stroke-miterlimit="10"></rect>
    <rect x="394.87" y="71.56" width="5" height="5" fill="#fff" stroke="#002346" stroke-miterlimit="10"></rect>
    <rect x="406.54" y="71.56" width="5" height="5" fill="#fff" stroke="#002346" stroke-miterlimit="10"></rect>
    <rect x="418.2" y="71.56" width="5" height="5" fill="#fff" stroke="#002346" stroke-miterlimit="10"></rect>
    <rect x="383.2" y="81.56" width="5" height="5" fill="#fff" stroke="#002346" stroke-miterlimit="10"></rect>
    <rect x="394.87" y="81.56" width="5" height="5" fill="#fff" stroke="#002346" stroke-miterlimit="10"></rect>
    <rect x="406.54" y="81.56" width="5" height="5" fill="#fff" stroke="#002346" stroke-miterlimit="10"></rect>
    <rect x="418.2" y="81.56" width="5" height="5" fill="#fff" stroke="#002346" stroke-miterlimit="10"></rect>
    <rect x="383.2" y="92.56" width="5" height="5" fill="#fff" stroke="#002346" stroke-miterlimit="10"></rect>
    <rect x="394.87" y="92.56" width="5" height="5" fill="#fff" stroke="#002346" stroke-miterlimit="10"></rect>
    <rect x="406.54" y="92.56" width="5" height="5" fill="#fff" stroke="#002346" stroke-miterlimit="10"></rect>
    <rect x="418.2" y="92.56" width="5" height="5" fill="#fff" stroke="#002346" stroke-miterlimit="10"></rect>
    <rect x="383.2" y="102.56" width="5" height="5" fill="#fff" stroke="#002346" stroke-miterlimit="10"></rect>
    <rect x="394.87" y="102.56" width="5" height="5" fill="#fff" stroke="#002346" stroke-miterlimit="10"></rect>
    <rect x="406.54" y="102.56" width="5" height="5" fill="#fff" stroke="#002346" stroke-miterlimit="10"></rect>
    <rect x="418.2" y="102.56" width="5" height="5" fill="#fff" stroke="#002346" stroke-miterlimit="10"></rect>
    <rect x="383.2" y="112.56" width="5" height="5" fill="#fff" stroke="#002346" stroke-miterlimit="10"></rect>
    <rect x="394.87" y="112.56" width="5" height="5" fill="#fff" stroke="#002346" stroke-miterlimit="10"></rect>
    <rect x="406.54" y="112.56" width="5" height="5" fill="#fff" stroke="#002346" stroke-miterlimit="10"></rect>
    <rect x="418.2" y="112.56" width="5" height="5" fill="#fff" stroke="#002346" stroke-miterlimit="10"></rect>
    <rect x="428.7" y="63.06" width="350" height="312.5" fill="#fff" stroke="#002346" stroke-miterlimit="10"></rect>
    <rect x="428.7" y="63.06" width="350" height="28.5" fill="#74a2f6" stroke="#002346" stroke-miterlimit="10"></rect>
    <circle cx="445.2" cy="77.56" r="4" fill="#fff" stroke="#002346" stroke-miterlimit="10"></circle>
    <circle cx="459.7" cy="77.56" r="4" fill="#fff" stroke="#002346" stroke-miterlimit="10"></circle>
    <circle cx="474.2" cy="77.56" r="4" fill="#fff" stroke="#002346" stroke-miterlimit="10"></circle>
    <rect x="428.7" y="118.76" width="350" height="72" fill="#fbe493" stroke="#002346" stroke-miterlimit="10"></rect>
    <rect x="454.2" y="147.26" width="50" height="15" fill="#fff" stroke="#002346" stroke-miterlimit="10"></rect>
    <rect x="644.2" y="136.76" width="97" height="36" fill="#fff" stroke="#002346" stroke-miterlimit="10"></rect>
    <rect x="679.2" y="147.26" width="51" height="15" fill="#74a2f6" stroke="#002346" stroke-miterlimit="10"></rect>
    <g>
      <line x1="664.2" y1="147.26" x2="664.2" y2="162.26" fill="none" stroke="#002346" stroke-linecap="round" stroke-linejoin="round"></line>
      <line x1="671.7" y1="154.76" x2="656.7" y2="154.76" fill="none" stroke="#002346" stroke-linecap="round" stroke-linejoin="round"></line>
    </g>
    <line x1="454.2" y1="210.56" x2="640.2" y2="210.56" fill="none" stroke="#002346" stroke-linecap="round" stroke-linejoin="round"></line>
    <line x1="454.2" y1="227.56" x2="533.2" y2="227.56" fill="none" stroke="#002346" stroke-linecap="round" stroke-linejoin="round"></line>
    <line x1="428.84" y1="250.64" x2="778.2" y2="250.64" fill="none" stroke="#002346" stroke-linecap="round" stroke-linejoin="round"></line>
    <rect x="687.2" y="216.56" width="73" height="20" rx="10" ry="10" fill="#74a2f6" stroke="#002346" stroke-miterlimit="10"></rect>
    <line x1="454.2" y1="270.56" x2="640.2" y2="270.56" fill="none" stroke="#002346" stroke-linecap="round" stroke-linejoin="round"></line>
    <line x1="454.2" y1="287.56" x2="533.2" y2="287.56" fill="none" stroke="#002346" stroke-linecap="round" stroke-linejoin="round"></line>
    <rect x="687.2" y="276.56" width="73" height="20" rx="10" ry="10" fill="#74a2f6" stroke="#002346" stroke-miterlimit="10"></rect>
    <line x1="428.84" y1="309.64" x2="778.2" y2="309.64" fill="none" stroke="#002346" stroke-linecap="round" stroke-linejoin="round"></line>
    <line x1="454.2" y1="329.56" x2="640.2" y2="329.56" fill="none" stroke="#002346" stroke-linecap="round" stroke-linejoin="round"></line>
    <line x1="454.2" y1="346.56" x2="533.2" y2="346.56" fill="none" stroke="#002346" stroke-linecap="round" stroke-linejoin="round"></line>
    <rect x="687.2" y="335.56" width="73" height="20" rx="10" ry="10" fill="#74a2f6" stroke="#002346" stroke-miterlimit="10"></rect>
    <path d="M302.39,643.43h-22.45c-10.12,1.14-7.8-6.93-7.8-6.93-.86-26,5.23-38.09,5.23-38.09v1.77s-6.59,26.76,0,28.58c0,0,29.33,4.77,27.51-7.33,5.28,23.58-2.49,22-2.49,22Z" fill="#74a2f6" stroke="#002346" stroke-miterlimit="10"></path>
    <path d="M401.32,529.7s-2.63,6.52,2.26,9.45l21.14,21.75c1.36,1.42,2.99,2.55,4.8,3.33,8.29,3.72,17.98,2.33,24.88-3.58,0,0,20.2-12.05-11.08-28.34l-42-2.61Z" fill="#74a2f6" stroke="#002346" stroke-miterlimit="10"></path>
    <polygon points="170.68 469.54 158.95 643.42 168.48 643.42 187.17 469.54 170.68 469.54" fill="#eaeaea" stroke="#002346" stroke-miterlimit="10"></polygon>
    <polygon points="339.28 643.42 320.59 469.54 336.35 469.54 348.08 643.42 339.28 643.42" fill="#eaeaea" stroke="#002346" stroke-miterlimit="10"></polygon>
    <rect x="151.55" y="433.83" width="203.58" height="39.38" rx="3.59" ry="3.59" fill="#eaeaea" stroke="#002346" stroke-miterlimit="10"></rect>
    <polygon points="217.65 252.66 258.62 252.66 282.48 298.74 280.54 364.34 244.89 364.45 222.38 304.66 217.65 252.66" fill="#e6e7e8" stroke="#002346" stroke-miterlimit="10"></polygon>
    <path d="M281.38,249.83s14.48,5.22,28,59.87l4.28,54.64h-22.08l-6.58-36.21-2-49.67-6.58-20.45,4.96-8.18Z" fill="#74a2f6" stroke="#002346" stroke-miterlimit="10"></path>
    <path d="M223.83,222.37l-1.34,16.59-2.65,5.63,12.6,29.27c1.72,4.18,4.44,7.88,7.92,10.76,3.9,3.12,9.42,5.83,15.94,4.17,0,0,11.93-1.55,4.2-23l-8.4-18.57-1.77-8.25-.25-5.45s-13.74,4.96-26.25-11.15Z" fill="#f1b2c0" stroke="#002346" stroke-miterlimit="10"></path>
    <path d="M219.84,244.59s-9,8.19-29.69,5.37c-3.84-.54-7.66,1.11-9.89,4.28-4.39,6.34-12,20.48-23.74,52,0,0-20.88,49.72-7.62,58h11.93s-2.32-19.87,23.21-23.17c0,0,3.31-3,3-12.26-.29-3.92,1.09-7.78,3.8-10.62,.16-.15,.41-.15,.57,0,.07,.07,.11,.16,.11,.26,.11,4.48,.61,8.94,1.49,13.33,0,0,5.63,26.52,.66,40.78,0,0-8,20.88-8.62,27.51,0,0,6.63-15.58,51.71-23.54l8.95-2s6.63-30.82,5-54c-4.58-14.5-9.97-28.73-16.15-42.62l-14.72-33.32Z" fill="#74a2f6" stroke="#002346" stroke-miterlimit="10"></path>
    <path d="M229.75,267.07l-9.91-22.47c-1.65,1.23-3.45,2.26-5.34,3.07l-3.02,13.95c-.15,.68,.26,1.37,.93,1.56l9.56,2.77c.89,.26,1.25,1.33,.7,2.07l-9.88,13.26c-.83,1.12-.52,2.7,.67,3.42,7.33,4.42,30.54,19.41,37.21,35.81,0-.01-8.62-29.05-20.92-53.44Z" fill="#fff" stroke="#002346" stroke-miterlimit="10"></path>
    <path d="M254.03,249.83h26.93c.24,0,.44,.17,.47,.41,.41,3.6,3.46,30,6.29,44.67,.54,2.91,1.48,5.73,2.79,8.39,2.6,5.21,7.11,16.96,2.74,29.71-.01,.04-.02,.08-.02,.12l-1.62,30.76c-.01,.25-.22,.45-.47,.45h-13.56c-.26,0-.47-.21-.47-.47l-.28-50.64c-.02-6.48-1.34-12.89-3.88-18.85-5.53-12.92-15.41-35.88-19.33-43.87-.15-.31,.08-.68,.43-.68Z" fill="#74a2f6" stroke="#002346" stroke-miterlimit="10"></path>
    <path d="M260.5,265.81l-7.23-16h4.73l11.83,7.84c.58,.39,.8,1.14,.51,1.78l-2.36,5.19c-.26,.57-.12,1.23,.34,1.65l9.48,8.53c1.64,1.48,2.27,3.79,1.57,5.89-1.4,4.16-3.33,12.52-2.99,26.4,0,0-1.32-8.37-15.88-41.26Z" fill="#fff" stroke="#002346" stroke-miterlimit="10"></path>
    <rect x="240.21" y="361.14" width="149.22" height="3.2" fill="#fff" stroke="#002346" stroke-miterlimit="10"></rect>
    <path d="M417.27,282.81l-27.81,78.33h-100.52l28.33-78.33h100Z" fill="#fbe493" stroke="#002346" stroke-miterlimit="10"></path>
    <path d="M185.03,400.07s-11,30,12.68,37.23c0,0,20.78,9.4,47.07-4.17,3.66-1.95,7.1-4.28,10.27-6.95l4.64-3.82c5.39-4.4,10.47-9.17,15.18-14.29,4.12-4.52,11.7-10.37,22.09-8,0,0,22.3,2.68,16.68,40.4l63.76,69.54,29.62-25.19-87.77-108.6-73.56-1.69s-52.81,8.4-60.66,25.54Z" fill="#fbe493" stroke="#002346" stroke-miterlimit="10"></path>
    <path d="M296.96,400.06s-12.37-4.37-22.09,8l-7.15,7.26s0,0,0,.01c0,0-14.89,12.49-24.85,18.74,0,0,19.48,1.47,24.19,4.34-.74,32.85-1.29,91.73,3.38,115.35,2.66,.44,38.46,0,38.46,0l4.74-113.3s7.76-35.6-16.68-40.4Z" fill="#fbe493" stroke="#002346" stroke-miterlimit="10"></path>
    <path d="M277.33,628.76c-6.59-1.82,0-28.58,0-28.58v-46.23l23.82-.12,.37,19.21c2.2,8.08-.37,12.84-.37,12.84-2.19,8.05,3.69,35.55,3.69,35.55,1.82,12.1-27.51,7.33-27.51,7.33Z" fill="#f1b2c0" stroke="#002346" stroke-miterlimit="10"></path>
    <path d="M383.77,504.58s8.4,9.16,10,15c0,0,1.43,8,7.52,10.1,1.18,.45,2.25,1.13,3.16,2l17.34,15.28c6.96,3.25,15.11,2.63,21.5-1.63,0,0,8.47-7.17,0-13l-16.61-14.66-24.34-28.89-18.57,15.8Z" fill="#f1b2c0" stroke="#002346" stroke-miterlimit="10"></path>
    <polygon points="51.56 364.34 531.27 364.34 531.27 364.34 531.27 376.21 51.56 376.21 51.56 364.34" fill="#fff" stroke="#002346" stroke-miterlimit="10"></polygon>
    <polygon points="86.51 376.22 67.94 643.42 77.22 643.54 106.16 376.22 86.51 376.22" fill="#fff" stroke="#002346" stroke-miterlimit="10"></polygon>
    <polygon points="475.77 376.22 505.5 643.54 512.94 643.54 494.35 376.22 475.77 376.22" fill="#fff" stroke="#002346" stroke-miterlimit="10"></polygon>
    <path d="M160.83,364.26l10.62,.08s6.92-15.31,20-21.34l-7.41-1.93s-24.4,1.49-23.21,23.19Z" fill="#fff" stroke="#002346" stroke-miterlimit="10"></path>
    <path d="M171.45,364.34s35.8,1,46.35-3.2l22.83-4.36c.7-.14,1.43-.14,2.13,0,4,.79,18.68,3.24,27.89-1.52,.63-.34,1.39-.32,2,.05,3.15,2,13.24,8,16.89,4.26l2.08-5.54c.39-1.02,.2-2.16-.5-3-3.31-3.95-13.61-15-24-12.78-6.2,1.21-12.27,3.03-18.11,5.45-1.32,.62-2.76,.92-4.22,.89l-53.31-1.63c-8.75,4.85-15.76,12.33-20.03,21.38Z" fill="#f1b2c0" stroke="#002346" stroke-miterlimit="10"></path>
    <path d="M269.36,347.96s8.58,.11,19.58,11.05" fill="none" stroke="#002346" stroke-linecap="round" stroke-linejoin="round"></path>
    <path d="M269.94,341.9s6.39-2.62,21.14,13.45" fill="none" stroke="#002346" stroke-linecap="round" stroke-linejoin="round"></path>
    <rect x="213.77" y="158.31" width="56" height="81" rx="28" ry="28" fill="#f1b2c0" stroke="#002346" stroke-miterlimit="10"></rect>
    <line x1="191.52" y1="318.45" x2="193.44" y2="291.31" fill="none" stroke="#002346" stroke-linecap="round" stroke-linejoin="round"></line>
    <path d="M265.2,226.53s5.14-7.46,4.57-15.21v-25s-2.15-15.29-14.36-19.52c0,0-9.9-2.07-9.9,4.81,0,0,0,10.05-9,13.23,0,0-6.88,2.65-6.88,8.47,0,0,.07,1.65-.6,3.64-1.44,4.32-6.18,6.61-10.54,5.3-1.46-.44-2.69-1.28-2.89-2.86l-3.85-2.28v2.89s2.44,15.57,2.44,15.57c0,0-.12,9.89,11.44,18.95,.54,.43-.59,1.27-.97,1.92,0,0-.66,1.22-.98,2.99-1.27,6.87-9.3,10.37-14.78,6.04-.42-.33-.81-.69-1.17-1.09,0,0-12.7,6.88-16.4-1.59,0,0-19.05,4.76-21.7-7.94,0,0-14.29,2.12-19.58-19.58,0,0,4.76-2.65,6.35-10.58,0,0-.53-7.94,7.41-8.47,0,0,8.47,0,10.58-12.7,2.12-12.7,4.23-15.88,12.17-16.4,0,0,1,1.06,4.7-7.41,0,0,5.82-10.58,15.35-9.53,0,0,5.29,0,7.41-3.18,0,0,8.47-9,20.11,2.65,0,0,14.1-7.86,26.17,10.41,.9,1.37,1.63,2.84,2.3,4.34s2.38,4.12,6.41,6.47c0,0,9.58,4.7,6.41,17.93-3.18,13.23,5.29,11.64,5.29,11.64,0,0,7.94-1.06,6.35,8.47,0,0-1.59,8.47,2.65,11.64,0,0-9,12.17-15.88,7.94,0,0-4.63,19.9-22.62,14.08l-1-4s9-3,14.99-12.04Z" fill="#002346" stroke="#002346" stroke-miterlimit="10"></path>
    <ellipse cx="214.5" cy="201.14" rx="5.93" ry="7.87" transform="translate(-1.3 1.39) rotate(-.37)" fill="#f1b2c0" stroke="#002346" stroke-miterlimit="10"></ellipse>
    <polygon points="217.51 211.85 214.81 213.46 212.07 211.92 212.02 208.77 214.73 207.17 217.47 208.7 217.51 211.85" fill="#74a2f6" stroke="#002346" stroke-miterlimit="10"></polygon>
    <rect x="720.2" y="324.56" width="80" height="76" fill="#eaeaea" stroke="#002346" stroke-miterlimit="10"></rect>
    <line x1="720.68" y1="345.17" x2="800.2" y2="345.17" fill="none" stroke="#002346" stroke-linecap="round" stroke-linejoin="round"></line>
    <circle cx="728.2" cy="334.56" r="2" fill="#fff" stroke="#002346" stroke-miterlimit="10"></circle>
    <circle cx="736.2" cy="362.06" r="6" fill="#fff" stroke="#002346" stroke-miterlimit="10"></circle>
    <line x1="748.2" y1="362.06" x2="788.2" y2="362.06" fill="none" stroke="#002346" stroke-linecap="round" stroke-linejoin="round"></line>
    <circle cx="736.2" cy="386.56" r="6" fill="#fff" stroke="#002346" stroke-miterlimit="10"></circle>
    <line x1="748.2" y1="386.56" x2="788.2" y2="386.56" fill="none" stroke="#002346" stroke-linecap="round" stroke-linejoin="round"></line>
    <circle cx="735.2" cy="334.56" r="2" fill="#fff" stroke="#002346" stroke-miterlimit="10"></circle>
    <circle cx="742.2" cy="334.56" r="2" fill="#fff" stroke="#002346" stroke-miterlimit="10"></circle>
    <circle cx="789.2" cy="391.56" r="25" fill="#74a2f6" stroke="#002346" stroke-miterlimit="10"></circle>
    <g>
      <line x1="789.2" y1="383.56" x2="789.2" y2="398.56" fill="none" stroke="#002346" stroke-linecap="round" stroke-linejoin="round"></line>
      <line x1="796.7" y1="391.06" x2="781.7" y2="391.06" fill="none" stroke="#002346" stroke-linecap="round" stroke-linejoin="round"></line>
    </g>
  </g>
  <g>
    <path d="M447,441.58c1.59-7.82,7.81-13.81,15.53-15.85,10.92-2.89,28.86-2.47,43.52,22.64,0,0,13.69,22.2,5.67,54.38,0,0-1.65-16.34-27.45-28.04-2.85-1.29-5.79-2.35-8.78-3.27-8.06-2.5-32.21-11.57-28.49-29.85Z" fill="#7cd295" stroke="#002346" stroke-miterlimit="10"></path>
    <path d="M539.49,414.25c-3.49,.67-6.69,2.5-8.82,5.34-4.15,5.55-7.29,17.17,3.38,40.47,0,0,15.74,33.23-10,72.9,0,0,41.52-18.52,52-57.73,3.63-13.57,2.58-28.05-3.26-40.82-5.28-11.56-15.22-23.61-33.31-20.16Z" fill="#7cd295" stroke="#002346" stroke-miterlimit="10"></path>
    <path d="M516.26,586.08s-20.13-29.72,14.61-59.77c.78-.68,1.59-1.32,2.4-1.96,6.55-5.2,46.1-39.37,18.88-87.21" fill="none" stroke="#002346" stroke-linecap="round" stroke-linejoin="round"></path>
    <path d="M487.17,448.84s36.78,24.33,20.82,67.32c0,0-17.75,43.89,1.09,69.01" fill="none" stroke="#002346" stroke-linecap="round" stroke-linejoin="round"></path>
    <path d="M438.75,517.82c.04-4.96,3.14-9.35,7.61-11.48,6.31-3.01,17.28-4.82,29.07,8.81,0,0,10.68,11.76,9.65,31.96,0,.1-.14,.13-.18,.04-.78-1.92-4.82-9.85-19.72-13.51-1.88-.46-3.78-.77-5.7-.99-5.17-.6-20.82-3.37-20.72-14.82Z" fill="#7cd295" stroke="#002346" stroke-miterlimit="10"></path>
    <path d="M548.56,542.11s25.13-20.03,51.6-.6c0,0,12.23,9.23,9.01,19.01-1.29,3.9-4.82,6.6-8.87,7.28-5.28,.89-14.27,.61-23.93-7.51,0,0-21.47-16.46-27.8-18.19Z" fill="#7cd295" stroke="#002346" stroke-miterlimit="10"></path>
    <path d="M522.09,585.63s3.59-61.91,62.8-42.17" fill="none" stroke="#002346" stroke-linecap="round" stroke-linejoin="round"></path>
    <polygon points="538.24 649.33 482.61 649.33 479.03 583.83 541.83 583.83 538.24 649.33" fill="#fff" stroke="#002346" stroke-miterlimit="10"></polygon>
    <path d="M480.82,610.3c3.64-1.75,9.1-3.73,15.7-3.59,6.44,.14,10.51,2.22,14.81,3.59,6.19,1.97,15.5,3.32,28.7,0" fill="none" stroke="#002346" stroke-linecap="round" stroke-linejoin="round"></path>
    <path d="M480.82,618.38c3.64-1.75,9.1-3.73,15.7-3.59,6.44,.14,10.51,2.22,14.81,3.59,6.19,1.97,15.5,3.32,28.7,0" fill="none" stroke="#002346" stroke-linecap="round" stroke-linejoin="round"></path>
    <path d="M463.77,521.03s24.22,9.87,30.51,62.8" fill="none" stroke="#002346" stroke-linecap="round" stroke-linejoin="round"></path>
  </g>
</svg>
